<?xml version="1.0" encoding="UTF-8"?>
<!DOCTYPE svg PUBLIC "-//W3C//DTD SVG 1.1//EN" "http://www.w3.org/Graphics/SVG/1.1/DTD/svg11.dtd">
<!-- Creator: CorelDRAW 2017 -->
<svg xmlns="http://www.w3.org/2000/svg" xml:space="preserve" width="210mm" height="297mm" version="1.1" style="shape-rendering:geometricPrecision; text-rendering:geometricPrecision; image-rendering:optimizeQuality; fill-rule:evenodd; clip-rule:evenodd"
viewBox="0 0 21000 29700"
 xmlns:xlink="http://www.w3.org/1999/xlink">
 <defs>
  <style type="text/css">
   <![CDATA[
    .fil0 {fill:#DEDCC7}
   ]]>
  </style>
 </defs>
 <g id="Capa_x0020_1">
  <metadata id="CorelCorpID_0Corel-Layer"/>
  <path class="fil0" d="M-12875 15759c44,-899 -100,-1817 -208,-2705 -104,-858 -188,-1681 -555,-2404 -775,-1524 -2366,-1827 -3990,-1878 -1320,-42 -4209,46 -5215,642 -381,226 -506,373 -744,737 -942,1440 -643,2022 -776,3630 -37,452 -161,819 -227,1248 -156,1017 8,3107 353,3992 652,1673 2353,1585 4318,1486 941,-47 1887,-78 2827,-136 857,-53 1834,-57 2619,-304 464,-146 675,-267 921,-560 513,-610 639,-2948 678,-3748z"/>
 </g>
</svg>
